<svg xmlns="http://www.w3.org/2000/svg" xmlns:xlink="http://www.w3.org/1999/xlink" width="1751" zoomAndPan="magnify" viewBox="0 0 1313.25 569.249982" height="759" preserveAspectRatio="xMidYMid meet" version="1.0"><defs><g/><clipPath id="8cc4ae2b32"><path d="M 26.066406 55.722656 L 867.953125 55.722656 L 867.953125 475.941406 L 26.066406 475.941406 Z M 26.066406 55.722656 " clip-rule="nonzero"/></clipPath></defs><g clip-path="url(#8cc4ae2b32)"><path fill="#5ce1e6" d="M 26.066406 -154.929688 L 867.953125 -154.929688 L 867.953125 686.960938 L 26.066406 686.960938 Z M 26.066406 -154.929688 " fill-opacity="1" fill-rule="nonzero"/></g><g fill="#ffffff" fill-opacity="1"><g transform="translate(136.749035, 430.82951)"><g><path d="M 169.375 0 L 239.414062 0 C 235.753906 -27.007812 234.835938 -43.488281 234.835938 -61.800781 L 234.835938 -135.957031 C 234.835938 -150.148438 234.378906 -163.882812 233.464844 -175.328125 C 229.800781 -218.816406 203.707031 -250.402344 131.378906 -250.402344 C 71.871094 -250.402344 24.71875 -218.816406 23.347656 -162.96875 L 92.011719 -162.96875 C 93.84375 -187.230469 106.203125 -200.960938 128.632812 -200.960938 C 150.148438 -200.960938 161.136719 -189.058594 162.507812 -174.410156 C 163.425781 -166.171875 163.425781 -159.761719 163.425781 -153.355469 L 163.425781 -149.234375 L 147.859375 -149.234375 C 61.800781 -149.234375 14.648438 -118.105469 14.648438 -65.003906 C 14.648438 -18.769531 51.726562 6.410156 92.929688 6.410156 C 115.359375 6.410156 135.957031 1.375 153.355469 -9.613281 L 164.339844 -35.707031 Z M 121.308594 -43.03125 C 101.625 -43.03125 88.351562 -52.644531 88.351562 -70.953125 C 88.351562 -99.335938 119.019531 -110.324219 163.425781 -106.660156 L 163.425781 -88.808594 C 163.425781 -58.59375 142.824219 -43.03125 121.308594 -43.03125 Z M 121.308594 -43.03125 "/></g></g></g><g fill="#ffffff" fill-opacity="1"><g transform="translate(376.163639, 430.82951)"><g><path d="M 113.070312 -196.382812 L 164.796875 -196.382812 L 164.796875 -242.160156 L 113.070312 -242.160156 L 113.070312 -303.503906 L 41.199219 -303.503906 L 41.199219 -242.160156 L 4.121094 -242.160156 L 4.121094 -196.382812 L 41.199219 -196.382812 L 41.199219 -84.230469 C 41.199219 -70.496094 41.199219 -59.511719 42.113281 -47.152344 C 44.863281 -11.445312 62.257812 5.949219 115.816406 5.949219 C 131.378906 5.949219 145.570312 4.578125 160.21875 2.289062 L 160.21875 -43.488281 C 123.597656 -41.199219 115.359375 -46.691406 113.527344 -70.953125 C 113.070312 -77.363281 113.070312 -85.601562 113.070312 -93.84375 Z M 113.070312 -196.382812 "/></g></g></g><g fill="#ffffff" fill-opacity="1"><g transform="translate(526.312738, 430.82951)"><g><path d="M 256.351562 -126.34375 C 256.351562 -191.347656 216.070312 -250.402344 138.246094 -250.402344 C 60.882812 -250.402344 11.902344 -194.554688 11.902344 -121.308594 C 11.902344 -35.25 65.460938 6.410156 133.667969 6.410156 C 193.179688 6.410156 238.957031 -23.347656 252.234375 -79.652344 L 181.277344 -79.652344 C 177.15625 -56.765625 160.21875 -43.03125 135.042969 -43.03125 C 108.035156 -43.03125 87.890625 -56.765625 83.773438 -103.457031 L 254.980469 -103.457031 C 255.894531 -112.152344 256.351562 -119.9375 256.351562 -126.34375 Z M 135.042969 -200.960938 C 161.59375 -200.960938 177.617188 -183.109375 181.734375 -148.777344 L 85.601562 -148.777344 C 91.554688 -184.941406 109.40625 -200.960938 135.042969 -200.960938 Z M 135.042969 -200.960938 "/></g></g></g><g fill="#ffffff" fill-opacity="1"><g transform="translate(772.593951, 430.82951)"><g><path d="M 169.375 0 L 239.414062 0 C 235.753906 -27.007812 234.835938 -43.488281 234.835938 -61.800781 L 234.835938 -135.957031 C 234.835938 -150.148438 234.378906 -163.882812 233.464844 -175.328125 C 229.800781 -218.816406 203.707031 -250.402344 131.378906 -250.402344 C 71.871094 -250.402344 24.71875 -218.816406 23.347656 -162.96875 L 92.011719 -162.96875 C 93.84375 -187.230469 106.203125 -200.960938 128.632812 -200.960938 C 150.148438 -200.960938 161.136719 -189.058594 162.507812 -174.410156 C 163.425781 -166.171875 163.425781 -159.761719 163.425781 -153.355469 L 163.425781 -149.234375 L 147.859375 -149.234375 C 61.800781 -149.234375 14.648438 -118.105469 14.648438 -65.003906 C 14.648438 -18.769531 51.726562 6.410156 92.929688 6.410156 C 115.359375 6.410156 135.957031 1.375 153.355469 -9.613281 L 164.339844 -35.707031 Z M 121.308594 -43.03125 C 101.625 -43.03125 88.351562 -52.644531 88.351562 -70.953125 C 88.351562 -99.335938 119.019531 -110.324219 163.425781 -106.660156 L 163.425781 -88.808594 C 163.425781 -58.59375 142.824219 -43.03125 121.308594 -43.03125 Z M 121.308594 -43.03125 "/></g></g></g><g fill="#ffffff" fill-opacity="1"><g transform="translate(1012.008555, 430.82951)"><g><path d="M 269.628906 -243.992188 L 191.808594 -243.992188 L 135.957031 -55.390625 L 79.652344 -243.992188 L 0 -243.992188 L 95.675781 0 L 174.410156 0 Z M 269.628906 -243.992188 "/></g></g></g></svg>