<svg xmlns="http://www.w3.org/2000/svg" xmlns:xlink="http://www.w3.org/1999/xlink" width="500" zoomAndPan="magnify" viewBox="0 0 375 374.999991" height="500" preserveAspectRatio="xMidYMid meet" version="1.0"><defs><clipPath id="54b73d3e1e"><path d="M 9.765625 9.765625 L 365.261719 9.765625 L 365.261719 365.261719 L 9.765625 365.261719 Z M 9.765625 9.765625 " clip-rule="nonzero"/></clipPath><clipPath id="6f2d4884d2"><path d="M 187.515625 9.765625 C 89.34375 9.765625 9.765625 89.34375 9.765625 187.515625 C 9.765625 285.683594 89.34375 365.265625 187.515625 365.265625 C 285.683594 365.265625 365.265625 285.683594 365.265625 187.515625 C 365.265625 89.34375 285.683594 9.765625 187.515625 9.765625 " clip-rule="nonzero"/></clipPath><clipPath id="7f37b5e01d"><path d="M 108.066406 110.425781 L 266.933594 110.425781 L 266.933594 133.652344 L 108.066406 133.652344 Z M 108.066406 110.425781 " clip-rule="nonzero"/></clipPath><clipPath id="ce7aeb9213"><path d="M 176.21875 147.953125 L 198.761719 147.953125 L 198.761719 281.933594 L 176.21875 281.933594 Z M 176.21875 147.953125 " clip-rule="nonzero"/></clipPath></defs><g clip-path="url(#54b73d3e1e)"><g clip-path="url(#6f2d4884d2)"><path stroke-linecap="butt" transform="matrix(0.750074, 0, 0, 0.750074, 9.763683, 9.763678)" fill="none" stroke-linejoin="miter" d="M 236.979135 0.00259553 C 106.096256 0.00259553 0.00258953 106.096262 0.00258953 236.979141 C 0.00258953 367.856812 106.096256 473.955686 236.979135 473.955686 C 367.856806 473.955686 473.95568 367.856812 473.95568 236.979141 C 473.95568 106.096262 367.856806 0.00259553 236.979135 0.00259553 " stroke="#5ce1e6" stroke-width="20" stroke-opacity="1" stroke-miterlimit="4"/></g></g><g clip-path="url(#7f37b5e01d)"><path fill="#5ce1e6" d="M 108.066406 110.425781 L 267.007812 110.425781 L 267.007812 133.78125 L 108.066406 133.78125 Z M 108.066406 110.425781 " fill-opacity="1" fill-rule="nonzero"/></g><g clip-path="url(#ce7aeb9213)"><path fill="#5ce1e6" d="M 198.761719 147.953125 L 198.761719 282.242188 L 176.054688 282.242188 L 176.054688 147.953125 Z M 198.761719 147.953125 " fill-opacity="1" fill-rule="nonzero"/></g></svg>